# xmcd
#
# Track frame offsets:
# 150
# 18017
# 43400
# 75145
# 115372
# 157377
# 173417
# 202232
# 222912
# 239830
#
# Disc length: 3497 seconds
#
#
# Revision: 0
# Processed by: cddbd v1.5.1PL2 Copyright (c) Steve Scherf et al.
# Submitted via: FreeRIP 2.51 
#
DISCID=890da70a
DTITLE=Mulens Portland Combo - Mulen Live
DYEAR=1997
DGENRE=Blues
TTITLE0=Born Under A Bad Sign
TTITLE1=Rock me Baby
TTITLE2=look What You've Done
TTITLE3=You Can't Always Get What You Want
TTITLE4=Caldonia
TTITLE5=See Saw
TTITLE6=Te Ni Nee Ni Nu
TTITLE7=Ain't Living Long Like This
TTITLE8=I Thank You
TTITLE9=Just A Closer Walk With Thee
EXTD=
EXTT0=
EXTT1=
EXTT2=
EXTT3=
EXTT4=
EXTT5=
EXTT6=
EXTT7=
EXTT8=
EXTT9=
PLAYORDER=
